<?xml version="1.0" standalone="no"?><!DOCTYPE svg PUBLIC "-//W3C//DTD SVG 1.1//EN" "http://www.w3.org/Graphics/SVG/1.1/DTD/svg11.dtd"><svg t="1782456683691" class="icon" viewBox="0 0 1024 1024" version="1.1" xmlns="http://www.w3.org/2000/svg" p-id="18889" xmlns:xlink="http://www.w3.org/1999/xlink" width="200" height="200"><path d="M114.730111 52.628021l1.105802-0.982935c2.866896-2.621162 6.061437-4.791812 9.583625-6.552906l2.047782-0.901024 1.761094-0.696246a40.628013 40.628013 0 0 1 0.573379-0.204779l0.163823-0.040955 4.05461-1.22867a40.832792 40.832792 0 0 1 4.627989-0.819113L143.276205 40.955659H798.689611a122.866976 122.866976 0 0 1 122.662198 115.65878L921.556587 163.822635v573.379222a122.866976 122.866976 0 0 1-115.617825 122.662197L798.689611 860.068833h-40.955659v41.488082c0 82.198007-79.413022 140.068353-156.860173 117.54274l-6.839595-2.211605-463.904746-159.030823a40.955659 40.955659 0 0 1-27.35838-33.58364L102.443413 819.113174V82.730431 81.911317l0.081911-0.982935 0.163823-3.481231a40.832792 40.832792 0 0 1 0.819113-4.62799l0.081911-0.450512a40.873747 40.873747 0 0 1 10.85325-19.412982l0.327645-0.327646zM184.35473 139.863574v650.00726l436.587322 149.651977a40.996614 40.996614 0 0 0 54.593893-33.174084l0.28669-4.791812V342.471218a40.259413 40.259413 0 0 0-22.36179-35.918113l-4.709901-2.047783L184.35473 139.90453zM676.109324 227.303906a122.293597 122.293597 0 0 1 81.378894 107.467648l0.245734 7.699664V778.157515h40.955659c21.010253 0 38.334497-15.84984 40.709925-36.163846L839.64527 737.201857V163.822635c0-20.969297-15.808884-38.293541-36.163847-40.668969L798.689611 122.866976H381.515271l294.594053 104.43693z" fill="#efb336" p-id="18890"></path></svg>