<?xml version="1.0" standalone="no"?><!DOCTYPE svg PUBLIC "-//W3C//DTD SVG 1.1//EN" "http://www.w3.org/Graphics/SVG/1.1/DTD/svg11.dtd"><svg t="1782457178197" class="icon" viewBox="0 0 1024 1024" version="1.1" xmlns="http://www.w3.org/2000/svg" p-id="25189" id="mx_n_1782457178198" xmlns:xlink="http://www.w3.org/1999/xlink" width="200" height="200"><path d="M960 448c-23.584 0-44 12.96-55.104 32h-139.84a323.456 323.456 0 0 0 61.6-53.984C914.656 325.792 927.296 190.816 928 128a32 32 0 0 0 32-32V32a32 32 0 0 0-32-32h-64a32 32 0 0 0-32 32v64a32 32 0 0 0 31.936 32c-0.8 54.08-11.68 171.84-85.376 255.776-48.224 54.944-116.608 86.304-203.008 93.984A31.776 31.776 0 0 0 544 448h-64a32 32 0 0 0-32 32H119.104c-11.104-19.04-31.52-32-55.104-32-35.296 0-64 28.704-64 64s28.704 64 64 64c23.584 0 44-12.96 55.104-32h139.936a323.744 323.744 0 0 0-60.544 52.832C109.472 697.184 96.736 832.96 96 896a32 32 0 0 0-32 32v64a32 32 0 0 0 32 32h64a32 32 0 0 0 32-32v-64a32 32 0 0 0-31.872-32c0.896-54.432 12.064-173.344 86.528-256.96 48.128-54.144 116.096-85.12 201.792-92.8 1.184 16.544 14.656 29.76 31.552 29.76h64a32 32 0 0 0 32-32h328.896c11.104 19.04 31.52 32 55.104 32 35.296 0 64-28.704 64-64s-28.704-64-64-64z" fill="#dd6572" p-id="25190"></path></svg>